# xmcd
#
# Track frame offsets: 
#        183
#        20193
#        39408
#        72145
#        95033
#        112293
#        130373
#        151330
#        175833
#        199528
#
# Disc length: 2969 seconds
#
# Revision: 10
# Processed by: cddbd v1.5.2PL0 Copyright (c) Steve Scherf et al.
# Submitted via: ExactAudioCopy v1.1
#
DISCID=8c0b970a
DTITLE=Cray Band, The Robert - I Was Warned
DYEAR=1992
DGENRE=Blues
TTITLE0=Just A Loser
TTITLE1=I'm A Good Man
TTITLE2=I Was Warned
TTITLE3=The Price I Pay
TTITLE4=Won The Battle
TTITLE5=On The Road Down
TTITLE6=A Whole Lotta Pride
TTITLE7=A Picture Of A Broken Heart
TTITLE8=He Don't Live Here Anymore
TTITLE9=Our Last Time
EXTD=YEAR: 1992
EXTT0=
EXTT1=
EXTT2=
EXTT3=
EXTT4=
EXTT5=
EXTT6=
EXTT7=
EXTT8=
EXTT9=
PLAYORDER=
